<svg xmlns="http://www.w3.org/2000/svg" version="1.1" xmlns:xlink="http://www.w3.org/1999/xlink" xmlns:svgjs="http://svgjs.com/svgjs" width="320.000000pt" height="278.000000pt">
<svg version="1.0" xmlns="http://www.w3.org/2000/svg" width="320.000000pt" height="278.000000pt" viewBox="0 0 320.000000 278.000000" preserveAspectRatio="xMidYMid meet">

<g transform="translate(0.000000,278.000000) scale(0.100000,-0.100000)" fill="#000000" stroke="none">
<path d="M1243 2724 c-26 -15 -54 -44 -70 -72 l-28 -47 -3 -361 -3 -361 -182
-6 c-142 -4 -198 -10 -255 -26 -140 -40 -250 -109 -358 -222 -105 -111 -171
-228 -210 -374 -27 -100 -27 -360 0 -460 70 -261 248 -475 476 -570 147 -62
110 -60 1005 -60 l820 0 95 33 c132 46 221 101 315 197 138 140 221 314 246
515 51 419 -184 808 -565 935 -87 28 -183 34 -558 35 l-368 0 0 333 c0 363 -5
406 -57 467 -43 51 -91 70 -180 70 -66 0 -85 -4 -120 -26z m-105 -1346 c3
-533 -8 -484 97 -448 78 27 132 59 197 119 72 65 108 137 158 306 52 182 87
252 164 329 71 73 128 109 229 143 62 21 86 24 172 21 91 -3 107 -7 178 -40
107 -51 181 -127 235 -238 65 -138 67 -152 65 -554 -2 -229 -6 -379 -14 -415
-6 -31 -29 -93 -51 -139 -82 -175 -239 -272 -439 -272 l-59 0 -2 308 c-1 169
-1 379 1 466 l2 159 -47 -7 c-75 -10 -187 -70 -253 -134 -71 -70 -107 -143
-156 -317 -48 -172 -83 -243 -155 -315 -122 -122 -334 -185 -502 -149 -186 40
-333 205 -377 427 -7 31 -11 195 -11 401 0 309 2 356 19 422 28 108 70 183
151 265 91 92 193 134 320 131 l75 -2 3 -467z"></path>
</g>
</svg><style>@media (prefers-color-scheme: light) { :root { filter: contrast(1) brightness(0.6); } }
@media (prefers-color-scheme: dark) { :root { filter: invert(100%); } }
</style></svg>